<svg width="44" height="44" viewBox="0 0 44 44" fill="none" xmlns="http://www.w3.org/2000/svg">
<circle cx="22" cy="22" r="21" fill="none" stroke="#DDA803"/>
<path d="M21.098 19.5469H17.9872C17.9304 19.1444 17.8144 18.7869 17.6392 18.4744C17.464 18.1572 17.2391 17.8873 16.9645 17.6648C16.6899 17.4422 16.3726 17.2718 16.0128 17.1534C15.6577 17.035 15.2718 16.9759 14.8551 16.9759C14.1023 16.9759 13.4465 17.1629 12.8878 17.5369C12.3291 17.9062 11.8958 18.446 11.5881 19.1562C11.2803 19.8617 11.1264 20.7187 11.1264 21.7273C11.1264 22.7642 11.2803 23.6354 11.5881 24.3409C11.9006 25.0464 12.3362 25.5791 12.8949 25.9389C13.4536 26.2988 14.0999 26.4787 14.8338 26.4787C15.2457 26.4787 15.6269 26.4242 15.9773 26.3153C16.3324 26.2064 16.6473 26.0478 16.9219 25.8395C17.1965 25.6264 17.4238 25.3684 17.6037 25.0653C17.7884 24.7623 17.9162 24.4167 17.9872 24.0284L21.098 24.0426C21.0175 24.7102 20.8163 25.3542 20.4943 25.9744C20.1771 26.59 19.7486 27.1416 19.2088 27.6293C18.6738 28.1122 18.0346 28.4957 17.2912 28.7798C16.5526 29.0592 15.7169 29.1989 14.7841 29.1989C13.4867 29.1989 12.3267 28.9053 11.304 28.3182C10.286 27.7311 9.48106 26.8812 8.8892 25.7685C8.30208 24.6558 8.00852 23.3087 8.00852 21.7273C8.00852 20.1411 8.30682 18.7917 8.90341 17.679C9.5 16.5663 10.3097 15.7187 11.3324 15.1364C12.3551 14.5492 13.5057 14.2557 14.7841 14.2557C15.6269 14.2557 16.4081 14.3741 17.1278 14.6108C17.8523 14.8475 18.4938 15.1932 19.0526 15.6477C19.6113 16.0975 20.0658 16.6491 20.4162 17.3026C20.7713 17.956 20.9986 18.7041 21.098 19.5469ZM25.9311 14.4545L29.4467 25.5057H29.5817L33.1044 14.4545H36.5135L31.4993 29H27.5362L22.5149 14.4545H25.9311Z" fill="#DDA803"/>
</svg>
