<svg xmlns="http://www.w3.org/2000/svg" xmlns:xlink="http://www.w3.org/1999/xlink" version="1.1" width="44" height="44" viewBox="0 0 1000 1000" xml:space="preserve">
<desc>Created with Fabric.js 3.5.0</desc>
<defs>
</defs>
<rect x="0" y="0" width="100%" height="100%" fill="#28293E"/>
<g transform="matrix(37.8788 0 0 37.8788 500.0001 500.0001)" id="987138">
<g style="" vector-effect="non-scaling-stroke">
		<g transform="matrix(1 0 0 1 3.5225 2.257)">
<path style="stroke: none; stroke-width: 1; stroke-dasharray: none; stroke-linecap: butt; stroke-dashoffset: 0; stroke-linejoin: miter; stroke-miterlimit: 4; is-custom-font: none; font-file-url: none; fill: rgb(221,168,3); fill-rule: nonzero; opacity: 1;" transform=" translate(-15.5225, -14.257)" d="M 20.303 16.047 h -9.561 c -0.936 0 -1.697 -0.803 -1.697 -1.79 s 0.762 -1.79 1.697 -1.79 h 9.561 c 0.936 0 1.697 0.803 1.697 1.79 s -0.762 1.79 -1.697 1.79 z m -9.561 -2.58 c -0.385 0 -0.697 0.354 -0.697 0.79 s 0.312 0.79 0.697 0.79 h 9.561 c 0.385 0 0.697 -0.354 0.697 -0.79 s -0.312 -0.79 -0.697 -0.79 h -9.561 z" stroke-linecap="round"/>
</g>
		<g transform="matrix(1 0 0 1 -1.728 0.0087)">
<path style="stroke: none; stroke-width: 1; stroke-dasharray: none; stroke-linecap: butt; stroke-dashoffset: 0; stroke-linejoin: miter; stroke-miterlimit: 4; is-custom-font: none; font-file-url: none; fill: rgb(221,168,3); fill-rule: nonzero; opacity: 1;" transform=" translate(-10.272, -12.0088)" d="M 11.618 24 c -1.604 0 -2.977 -0.533 -3.97 -1.541 L 3.55 18.278 C 2.551 17.262 2 15.819 2 14.215 c 0 -1.578 0.551 -3.008 1.552 -4.025 L 13.071 0.509 c 0.66 -0.67 1.829 -0.652 2.506 0.036 c 0.694 0.706 0.71 1.839 0.034 2.524 l -1.762 1.816 a 5.25 5.25 0 0 1 1.739 1.159 l 2.463 2.53 c 0.672 0.684 0.655 1.815 -0.039 2.521 a 1.79 1.79 0 0 1 -1.284 0.545 c -0.464 0 -0.896 -0.181 -1.219 -0.509 l -2.536 -2.492 c -0.321 -0.327 -0.779 -0.49 -1.367 -0.49 c -0.606 0 -1.069 0.157 -1.375 0.469 l -4.067 4.194 c -0.342 0.349 -0.521 0.831 -0.521 1.4 c 0 0.577 0.189 1.101 0.519 1.436 l 4.083 4.182 c 0.315 0.321 0.774 0.484 1.362 0.484 s 1.045 -0.163 1.36 -0.484 l 2.549 -2.505 a 1.687 1.687 0 0 1 1.209 -0.503 h 0.002 c 0.483 0 0.939 0.194 1.286 0.546 c 0.693 0.705 0.71 1.837 0.036 2.522 l -2.457 2.525 C 14.586 23.438 13.176 24 11.618 24 z M 14.29 1 a 0.703 0.703 0 0 0 -0.507 0.21 l -9.519 9.681 C 3.449 11.72 3 12.9 3 14.215 c 0 1.341 0.449 2.535 1.265 3.363 l 0.001 0.001 l 4.097 4.18 C 9.162 22.57 10.288 23 11.618 23 c 1.288 0 2.444 -0.455 3.258 -1.282 l 2.457 -2.525 c 0.295 -0.301 0.279 -0.804 -0.034 -1.122 a 0.801 0.801 0 0 0 -0.573 -0.247 h -0.001 a 0.703 0.703 0 0 0 -0.502 0.209 l -2.549 2.505 c -0.497 0.507 -1.214 0.778 -2.068 0.778 s -1.572 -0.271 -2.076 -0.784 L 5.446 16.35 c -0.519 -0.527 -0.805 -1.286 -0.805 -2.136 c 0 -0.824 0.286 -1.57 0.806 -2.099 l 4.067 -4.194 c 0.503 -0.512 1.206 -0.771 2.091 -0.771 c 0.854 0 1.571 0.271 2.074 0.783 l 2.536 2.492 a 0.705 0.705 0 0 0 0.512 0.216 a 0.798 0.798 0 0 0 0.571 -0.246 c 0.313 -0.319 0.33 -0.822 0.037 -1.121 l -2.461 -2.528 a 4.238 4.238 0 0 0 -2.028 -1.137 c -0.175 -0.041 -0.331 -0.176 -0.382 -0.349 s -0.021 -0.363 0.104 -0.492 l 2.325 -2.398 c 0.298 -0.302 0.282 -0.805 -0.031 -1.124 A 0.799 0.799 0 0 0 14.29 1 z" stroke-linecap="round"/>
</g>
</g>
</g>
</svg>
