<svg width="44" height="44" viewBox="0 0 44 44" fill="none" xmlns="http://www.w3.org/2000/svg">
<path d="M32.9942 30.9993V30.9985H32.9993V23.8538C32.9993 20.3585 32.2025 17.666 27.8752 17.666C25.795 17.666 24.399 18.744 23.8291 19.7659H23.7689V17.9923H19.666V30.9985H23.9383V24.5583C23.9383 22.8627 24.2787 21.223 26.5025 21.223C28.6936 21.223 28.7263 23.1581 28.7263 24.6671V30.9993H32.9942Z" fill="#DDA803"/>
<path d="M13 17.666H18V30.9993H13V17.666Z" fill="#DDA803"/>
<path d="M15.5 11C14.1199 11 13 12.1147 13 13.4883C13 14.862 14.1199 16 15.5 16C16.8801 16 18 14.862 18 13.4883C17.9991 12.1147 16.8793 11 15.5 11V11Z" fill="#DDA803"/>
<circle cx="22" cy="22" r="21" stroke="#DDA803"/>
</svg>
