<svg width="407" height="29" viewBox="0 0 407 29" fill="none" xmlns="http://www.w3.org/2000/svg">
<path d="M0.417 22V8.194H4.408V22H0.417ZM2.406 5.945C1.782 5.945 1.236 5.78033 0.768 5.451C0.308667 5.12167 0.0790001 4.658 0.0790001 4.06C0.0790001 3.45333 0.308667 2.98533 0.768 2.656C1.236 2.32667 1.782 2.162 2.406 2.162C3.03867 2.162 3.58467 2.32667 4.044 2.656C4.512 2.98533 4.746 3.45333 4.746 4.06C4.746 4.66667 4.512 5.13467 4.044 5.464C3.58467 5.78467 3.03867 5.945 2.406 5.945ZM9.05469 22V11.314H6.18169V8.194H9.05469V7.245C9.05469 6.32633 9.17602 5.542 9.41869 4.892C9.67002 4.23333 10.008 3.68733 10.4327 3.254C10.8574 2.812 11.334 2.46533 11.8627 2.214C12.4 1.954 12.9504 1.772 13.5137 1.668C14.0857 1.55533 14.6404 1.499 15.1777 1.499C15.7497 1.499 16.1744 1.53367 16.4517 1.603C16.7377 1.66367 16.9284 1.71567 17.0237 1.759V4.892C16.9197 4.85733 16.7334 4.81833 16.4647 4.775C16.2047 4.73167 15.923 4.71 15.6197 4.71C15.117 4.71 14.701 4.775 14.3717 4.905C14.0424 5.035 13.7824 5.22567 13.5917 5.477C13.401 5.71967 13.2667 6.01 13.1887 6.348C13.1107 6.67733 13.0717 7.037 13.0717 7.427V8.194H16.7767V11.314H13.0717V22H9.05469Z" fill="#DE286A"/>
<path d="M32.1669 28.071C31.9502 27.915 31.6079 27.629 31.1399 27.213C30.6805 26.8057 30.1692 26.2423 29.6059 25.523C29.0425 24.8037 28.5009 23.9153 27.9809 22.858C27.4609 21.8093 27.0319 20.57 26.6939 19.14C26.3645 17.7013 26.1999 16.059 26.1999 14.213C26.1999 12.3583 26.3645 10.7117 26.6939 9.273C27.0319 7.83433 27.4609 6.58633 27.9809 5.529C28.5009 4.47167 29.0425 3.58333 29.6059 2.864C30.1692 2.14467 30.6805 1.58133 31.1399 1.174C31.6079 0.766666 31.9502 0.489332 32.1669 0.341998L34.2599 2.552C33.9999 2.75133 33.6185 3.11533 33.1159 3.644C32.6219 4.17267 32.1105 4.90067 31.5819 5.828C31.0619 6.74667 30.6199 7.89933 30.2559 9.286C29.8919 10.664 29.7099 12.3063 29.7099 14.213C29.7099 16.111 29.8919 17.749 30.2559 19.127C30.6199 20.4963 31.0619 21.6403 31.5819 22.559C32.1105 23.4863 32.6219 24.2143 33.1159 24.743C33.6185 25.2717 33.9999 25.6443 34.2599 25.861L32.1669 28.071ZM47.0035 2.851L46.1975 16.631H43.7795L42.9735 2.851H47.0035ZM45.0145 22.39C44.4165 22.39 43.9095 22.182 43.4935 21.766C43.0775 21.35 42.8695 20.843 42.8695 20.245C42.8695 19.6557 43.0775 19.153 43.4935 18.737C43.9095 18.321 44.4165 18.113 45.0145 18.113C45.6038 18.113 46.1065 18.321 46.5225 18.737C46.9385 19.153 47.1465 19.6557 47.1465 20.245C47.1465 20.843 46.9385 21.35 46.5225 21.766C46.1065 22.182 45.6038 22.39 45.0145 22.39ZM67.1212 22V16.137C67.1212 15.8077 67.1212 15.5087 67.1212 15.24C67.1212 14.9713 67.1212 14.7287 67.1212 14.512C67.1212 13.94 67.0476 13.42 66.9002 12.952C66.7529 12.4753 66.4886 12.094 66.1072 11.808C65.7259 11.522 65.1756 11.379 64.4562 11.379C63.8322 11.379 63.2906 11.522 62.8312 11.808C62.3806 12.094 62.0339 12.4927 61.7912 13.004C61.5486 13.5153 61.4272 14.1047 61.4272 14.772L60.3092 13.966C60.3092 12.77 60.5692 11.7213 61.0892 10.82C61.6092 9.91867 62.3112 9.21233 63.1952 8.701C64.0879 8.18967 65.0759 7.934 66.1592 7.934C67.2946 7.934 68.2262 8.16367 68.9542 8.623C69.6909 9.07367 70.2369 9.70633 70.5922 10.521C70.9562 11.327 71.1382 12.2717 71.1382 13.355C71.1382 13.797 71.1382 14.291 71.1382 14.837C71.1382 15.383 71.1382 15.942 71.1382 16.514V22H67.1212ZM57.3972 22V8.194H61.4272V22H57.3972ZM78.835 22.286C77.8297 22.286 76.9327 22.1257 76.144 21.805C75.364 21.4843 74.753 21.0207 74.311 20.414C73.869 19.8073 73.648 19.0707 73.648 18.204C73.648 17.2247 73.9167 16.4273 74.454 15.812C74.9914 15.1967 75.702 14.7287 76.586 14.408C77.4787 14.0787 78.445 13.862 79.485 13.758C81.0017 13.6107 82.046 13.4763 82.618 13.355C83.1987 13.2337 83.489 13.0213 83.489 12.718C83.489 12.7093 83.489 12.7007 83.489 12.692C83.489 12.1807 83.242 11.7777 82.748 11.483C82.2627 11.1883 81.5824 11.041 80.707 11.041C79.7797 11.041 79.069 11.21 78.575 11.548C78.0897 11.8773 77.847 12.3843 77.847 13.069H73.882C73.882 11.9597 74.181 11.0237 74.779 10.261C75.3857 9.49833 76.2047 8.922 77.236 8.532C78.2674 8.13333 79.433 7.934 80.733 7.934C81.9464 7.934 83.0687 8.12033 84.1 8.493C85.1314 8.857 85.959 9.40733 86.583 10.144C87.2157 10.8807 87.532 11.8167 87.532 12.952C87.532 13.134 87.532 13.316 87.532 13.498C87.532 13.6713 87.532 13.849 87.532 14.031V18.919C87.532 19.2743 87.5407 19.6167 87.558 19.946C87.584 20.2667 87.636 20.5613 87.714 20.83C87.8007 21.1333 87.909 21.3847 88.039 21.584C88.169 21.7833 88.2774 21.922 88.364 22H84.399C84.3384 21.9393 84.243 21.8137 84.113 21.623C83.9917 21.4323 83.8877 21.2113 83.801 20.96C83.697 20.6567 83.619 20.3533 83.567 20.05C83.5237 19.738 83.502 19.374 83.502 18.958L84.334 19.53C84.0914 20.102 83.697 20.596 83.151 21.012C82.6137 21.4193 81.9724 21.7357 81.227 21.961C80.4904 22.1777 79.693 22.286 78.835 22.286ZM79.914 19.27C80.5467 19.27 81.136 19.1573 81.682 18.932C82.2367 18.698 82.6874 18.334 83.034 17.84C83.3807 17.346 83.554 16.7003 83.554 15.903V14.512L84.555 15.487C83.983 15.695 83.32 15.8683 82.566 16.007C81.8207 16.137 81.0754 16.241 80.33 16.319C79.446 16.4057 78.783 16.5573 78.341 16.774C77.9077 16.982 77.691 17.3373 77.691 17.84C77.691 18.3167 77.8774 18.6763 78.25 18.919C78.6227 19.153 79.1774 19.27 79.914 19.27ZM99.1002 22V16.657C99.1002 16.1457 99.1002 15.7037 99.1002 15.331C99.1002 14.9497 99.1002 14.6333 99.1002 14.382C99.1002 14.0267 99.0785 13.6757 99.0352 13.329C99.0005 12.9823 98.9139 12.6617 98.7752 12.367C98.6452 12.0637 98.4415 11.8253 98.1642 11.652C97.8869 11.47 97.5099 11.379 97.0332 11.379C96.5912 11.379 96.2099 11.4743 95.8892 11.665C95.5685 11.847 95.3042 12.1027 95.0962 12.432C94.8969 12.7527 94.7495 13.1253 94.6542 13.55C94.5589 13.966 94.5112 14.4037 94.5112 14.863L93.4062 13.953C93.4062 12.783 93.6185 11.7473 94.0432 10.846C94.4679 9.936 95.0702 9.22533 95.8502 8.714C96.6389 8.194 97.5705 7.934 98.6452 7.934C99.7979 7.934 100.695 8.181 101.336 8.675C101.986 9.16033 102.441 9.81033 102.701 10.625C102.97 11.431 103.104 12.3237 103.104 13.303C103.104 13.6757 103.104 14.1783 103.104 14.811C103.104 15.4437 103.104 16.202 103.104 17.086V22H99.1002ZM90.4812 22V8.194H94.5112V22H90.4812ZM107.68 22V16.67C107.68 16.1413 107.68 15.6863 107.68 15.305C107.68 14.9237 107.68 14.6073 107.68 14.356C107.68 13.9747 107.659 13.6107 107.615 13.264C107.572 12.9087 107.481 12.588 107.342 12.302C107.204 12.016 106.996 11.7907 106.718 11.626C106.441 11.4613 106.064 11.379 105.587 11.379C105.145 11.379 104.764 11.4743 104.443 11.665C104.131 11.847 103.876 12.0983 103.676 12.419C103.477 12.7397 103.33 13.1037 103.234 13.511C103.148 13.9183 103.104 14.343 103.104 14.785L101.999 13.888C101.999 12.7353 102.207 11.7127 102.623 10.82C103.048 9.92733 103.646 9.22533 104.417 8.714C105.197 8.194 106.129 7.934 107.212 7.934C108.339 7.934 109.227 8.17233 109.877 8.649C110.536 9.12567 111.004 9.76267 111.281 10.56C111.567 11.3487 111.71 12.2327 111.71 13.212C111.71 13.602 111.71 14.1047 111.71 14.72C111.71 15.3353 111.71 16.085 111.71 16.969V22H107.68ZM116.276 16.306V13.641H125.428L125.038 14.317C125.038 14.2477 125.038 14.1827 125.038 14.122C125.038 14.0527 125.038 13.9877 125.038 13.927C125.038 13.433 124.921 12.9607 124.687 12.51C124.453 12.0507 124.089 11.678 123.595 11.392C123.11 11.0973 122.486 10.95 121.723 10.95C120.961 10.95 120.302 11.1147 119.747 11.444C119.201 11.7647 118.781 12.2283 118.486 12.835C118.2 13.4417 118.057 14.174 118.057 15.032C118.057 15.916 118.196 16.6743 118.473 17.307C118.759 17.931 119.18 18.412 119.734 18.75C120.298 19.088 120.995 19.257 121.827 19.257C122.365 19.257 122.828 19.2093 123.218 19.114C123.608 19.01 123.925 18.88 124.167 18.724C124.419 18.568 124.609 18.3947 124.739 18.204C124.869 18.0133 124.947 17.827 124.973 17.645H128.951C128.899 18.2257 128.7 18.7977 128.353 19.361C128.007 19.9157 127.526 20.4183 126.91 20.869C126.295 21.311 125.545 21.662 124.661 21.922C123.786 22.182 122.785 22.312 121.658 22.312C120.133 22.312 118.803 22.0087 117.667 21.402C116.532 20.7867 115.652 19.9417 115.028 18.867C114.404 17.7837 114.092 16.5357 114.092 15.123C114.092 13.693 114.409 12.4407 115.041 11.366C115.683 10.2827 116.571 9.442 117.706 8.844C118.85 8.23733 120.172 7.934 121.671 7.934C123.205 7.934 124.531 8.24167 125.649 8.857C126.767 9.46367 127.63 10.3173 128.236 11.418C128.843 12.51 129.146 13.784 129.146 15.24C129.146 15.4567 129.142 15.6647 129.133 15.864C129.125 16.0633 129.112 16.2107 129.094 16.306H116.276ZM130.495 26.108V23.443H147.031V26.108H130.495ZM155.793 22.286C155.264 22.286 154.718 22.2383 154.155 22.143C153.6 22.0563 153.08 21.8787 152.595 21.61C152.118 21.3327 151.732 20.9297 151.438 20.401C151.143 19.8723 150.996 19.1747 150.996 18.308C150.996 18.1173 150.996 17.9223 150.996 17.723C150.996 17.5237 150.996 17.3243 150.996 17.125V11.314H147.811V8.194H148.708C149.228 8.194 149.639 8.17233 149.943 8.129C150.255 8.08567 150.484 7.97733 150.632 7.804C150.788 7.622 150.887 7.34033 150.931 6.959C150.974 6.57767 150.996 6.05333 150.996 5.386V3.644H155.039V8.194H159.056V11.314H155.039V16.28C155.039 16.436 155.039 16.5877 155.039 16.735C155.039 16.8823 155.039 17.0253 155.039 17.164C155.039 17.762 155.108 18.2473 155.247 18.62C155.394 18.9927 155.754 19.179 156.326 19.179C156.612 19.179 156.88 19.153 157.132 19.101C157.392 19.049 157.587 18.997 157.717 18.945V21.974C157.535 22.052 157.279 22.1213 156.95 22.182C156.62 22.2513 156.235 22.286 155.793 22.286ZM165.849 22.286C164.843 22.286 163.946 22.1257 163.158 21.805C162.378 21.4843 161.767 21.0207 161.325 20.414C160.883 19.8073 160.662 19.0707 160.662 18.204C160.662 17.2247 160.93 16.4273 161.468 15.812C162.005 15.1967 162.716 14.7287 163.6 14.408C164.492 14.0787 165.459 13.862 166.499 13.758C168.015 13.6107 169.06 13.4763 169.632 13.355C170.212 13.2337 170.503 13.0213 170.503 12.718C170.503 12.7093 170.503 12.7007 170.503 12.692C170.503 12.1807 170.256 11.7777 169.762 11.483C169.276 11.1883 168.596 11.041 167.721 11.041C166.793 11.041 166.083 11.21 165.589 11.548C165.103 11.8773 164.861 12.3843 164.861 13.069H160.896C160.896 11.9597 161.195 11.0237 161.793 10.261C162.399 9.49833 163.218 8.922 164.25 8.532C165.281 8.13333 166.447 7.934 167.747 7.934C168.96 7.934 170.082 8.12033 171.114 8.493C172.145 8.857 172.973 9.40733 173.597 10.144C174.229 10.8807 174.546 11.8167 174.546 12.952C174.546 13.134 174.546 13.316 174.546 13.498C174.546 13.6713 174.546 13.849 174.546 14.031V18.919C174.546 19.2743 174.554 19.6167 174.572 19.946C174.598 20.2667 174.65 20.5613 174.728 20.83C174.814 21.1333 174.923 21.3847 175.053 21.584C175.183 21.7833 175.291 21.922 175.378 22H171.413C171.352 21.9393 171.257 21.8137 171.127 21.623C171.005 21.4323 170.901 21.2113 170.815 20.96C170.711 20.6567 170.633 20.3533 170.581 20.05C170.537 19.738 170.516 19.374 170.516 18.958L171.348 19.53C171.105 20.102 170.711 20.596 170.165 21.012C169.627 21.4193 168.986 21.7357 168.241 21.961C167.504 22.1777 166.707 22.286 165.849 22.286ZM166.928 19.27C167.56 19.27 168.15 19.1573 168.696 18.932C169.25 18.698 169.701 18.334 170.048 17.84C170.394 17.346 170.568 16.7003 170.568 15.903V14.512L171.569 15.487C170.997 15.695 170.334 15.8683 169.58 16.007C168.834 16.137 168.089 16.241 167.344 16.319C166.46 16.4057 165.797 16.5573 165.355 16.774C164.921 16.982 164.705 17.3373 164.705 17.84C164.705 18.3167 164.891 18.6763 165.264 18.919C165.636 19.153 166.191 19.27 166.928 19.27ZM187.024 20.362C187.873 20.4487 188.614 20.6133 189.247 20.856C189.888 21.09 190.387 21.441 190.742 21.909C191.097 22.3683 191.275 22.9837 191.275 23.755C191.275 24.6477 190.98 25.406 190.391 26.03C189.81 26.6627 188.957 27.1437 187.83 27.473C186.703 27.8023 185.338 27.967 183.735 27.967C181.369 27.967 179.536 27.6247 178.236 26.94C176.945 26.264 176.299 25.3583 176.299 24.223C176.299 23.9023 176.334 23.612 176.403 23.352C176.481 23.1007 176.576 22.884 176.689 22.702L180.355 23.235C180.312 23.2957 180.264 23.3867 180.212 23.508C180.169 23.638 180.147 23.7983 180.147 23.989C180.147 24.4483 180.489 24.7907 181.174 25.016C181.867 25.2413 182.76 25.354 183.852 25.354C184.623 25.354 185.282 25.2977 185.828 25.185C186.383 25.081 186.803 24.925 187.089 24.717C187.384 24.509 187.531 24.2707 187.531 24.002C187.531 23.612 187.34 23.3563 186.959 23.235C186.586 23.1137 186.153 23.027 185.659 22.975L180.433 22.442C179.471 22.3467 178.674 22.0693 178.041 21.61C177.408 21.1507 177.092 20.531 177.092 19.751C177.092 19.2657 177.226 18.8237 177.495 18.425C177.764 18.0177 178.071 17.684 178.418 17.424C178.765 17.1553 179.055 16.9863 179.289 16.917L181.343 17.957C181.178 17.983 180.983 18.087 180.758 18.269C180.541 18.451 180.433 18.6633 180.433 18.906C180.433 19.1487 180.554 19.3567 180.797 19.53C181.048 19.7033 181.503 19.8203 182.162 19.881L187.024 20.362ZM188.389 8.194H191.938L190.495 13.498C190.226 14.5033 189.828 15.4003 189.299 16.189C188.77 16.969 188.064 17.5843 187.18 18.035C186.305 18.4857 185.2 18.711 183.865 18.711C182.461 18.711 181.243 18.4943 180.212 18.061C179.189 17.6277 178.401 17.0167 177.846 16.228C177.291 15.4307 177.014 14.4903 177.014 13.407C177.014 12.3237 177.296 11.3703 177.859 10.547C178.431 9.72367 179.207 9.08233 180.186 8.623C181.174 8.16367 182.292 7.934 183.54 7.934C184.485 7.934 185.347 8.09 186.127 8.402C186.916 8.70533 187.548 9.10833 188.025 9.611C188.51 10.1137 188.762 10.6683 188.779 11.275L188.038 11.47L188.389 8.194ZM183.839 15.76C184.411 15.76 184.914 15.669 185.347 15.487C185.78 15.2963 186.118 15.0233 186.361 14.668C186.604 14.304 186.725 13.8663 186.725 13.355C186.725 12.8523 186.604 12.4233 186.361 12.068C186.118 11.7127 185.78 11.4397 185.347 11.249C184.914 11.0583 184.411 10.963 183.839 10.963C183.293 10.963 182.799 11.0627 182.357 11.262C181.924 11.4527 181.581 11.73 181.33 12.094C181.079 12.4493 180.953 12.8827 180.953 13.394C180.953 13.8967 181.074 14.3257 181.317 14.681C181.56 15.0277 181.898 15.2963 182.331 15.487C182.764 15.669 183.267 15.76 183.839 15.76ZM367.211 28.071L365.118 25.861C365.378 25.6443 365.755 25.2717 366.249 24.743C366.751 24.2143 367.263 23.4863 367.783 22.559C368.311 21.6403 368.758 20.4963 369.122 19.127C369.486 17.749 369.668 16.111 369.668 14.213C369.668 12.3063 369.486 10.664 369.122 9.286C368.758 7.89933 368.311 6.74667 367.783 5.828C367.263 4.90067 366.751 4.17267 366.249 3.644C365.755 3.11533 365.378 2.75133 365.118 2.552L367.211 0.341998C367.427 0.489332 367.765 0.766666 368.225 1.174C368.693 1.58133 369.208 2.14467 369.772 2.864C370.335 3.58333 370.877 4.47167 371.397 5.529C371.917 6.58633 372.341 7.83433 372.671 9.273C373.009 10.7117 373.178 12.3583 373.178 14.213C373.178 16.059 373.009 17.7013 372.671 19.14C372.341 20.57 371.917 21.8093 371.397 22.858C370.877 23.9153 370.335 24.8037 369.772 25.523C369.208 26.2423 368.693 26.8057 368.225 27.213C367.765 27.629 367.427 27.915 367.211 28.071ZM385.111 28.071L383.018 25.861C383.278 25.6443 383.655 25.2717 384.149 24.743C384.652 24.2143 385.163 23.4863 385.683 22.559C386.212 21.6403 386.658 20.4963 387.022 19.127C387.386 17.749 387.568 16.111 387.568 14.213C387.568 12.3063 387.386 10.664 387.022 9.286C386.658 7.89933 386.212 6.74667 385.683 5.828C385.163 4.90067 384.652 4.17267 384.149 3.644C383.655 3.11533 383.278 2.75133 383.018 2.552L385.111 0.341998C385.328 0.489332 385.666 0.766666 386.125 1.174C386.593 1.58133 387.109 2.14467 387.672 2.864C388.235 3.58333 388.777 4.47167 389.297 5.529C389.817 6.58633 390.242 7.83433 390.571 9.273C390.909 10.7117 391.078 12.3583 391.078 14.213C391.078 16.059 390.909 17.7013 390.571 19.14C390.242 20.57 389.817 21.8093 389.297 22.858C388.777 23.9153 388.235 24.8037 387.672 25.523C387.109 26.2423 386.593 26.8057 386.125 27.213C385.666 27.629 385.328 27.915 385.111 28.071ZM402.491 26.277L401.945 25.315C402.379 25.1157 402.795 24.8297 403.193 24.457C403.592 24.0843 403.917 23.6943 404.168 23.287C404.42 22.8883 404.545 22.5373 404.545 22.234C404.545 22.0953 404.524 21.9653 404.48 21.844C404.446 21.714 404.398 21.61 404.337 21.532H405.273C405.169 21.7747 404.987 21.9913 404.727 22.182C404.467 22.3727 404.108 22.468 403.648 22.468C403.12 22.468 402.643 22.2903 402.218 21.935C401.802 21.571 401.594 21.0553 401.594 20.388C401.594 19.7467 401.811 19.2223 402.244 18.815C402.678 18.4077 403.228 18.204 403.895 18.204C404.641 18.204 405.239 18.464 405.689 18.984C406.14 19.4953 406.365 20.141 406.365 20.921C406.365 21.727 406.175 22.481 405.793 23.183C405.421 23.885 404.94 24.5003 404.35 25.029C403.761 25.5663 403.141 25.9823 402.491 26.277ZM403.817 12.588C403.219 12.588 402.712 12.38 402.296 11.964C401.88 11.548 401.672 11.041 401.672 10.443C401.672 9.85367 401.88 9.351 402.296 8.935C402.712 8.519 403.219 8.311 403.817 8.311C404.407 8.311 404.909 8.519 405.325 8.935C405.741 9.351 405.949 9.85367 405.949 10.443C405.949 11.041 405.741 11.548 405.325 11.964C404.909 12.38 404.407 12.588 403.817 12.588Z" fill="#99B8AE"/>
<path d="M200.735 28.071C200.519 27.915 200.176 27.629 199.708 27.213C199.249 26.8057 198.738 26.2423 198.174 25.523C197.611 24.8037 197.069 23.9153 196.549 22.858C196.029 21.8093 195.6 20.57 195.262 19.14C194.933 17.7013 194.768 16.059 194.768 14.213C194.768 12.3583 194.933 10.7117 195.262 9.273C195.6 7.83433 196.029 6.58633 196.549 5.529C197.069 4.47167 197.611 3.58333 198.174 2.864C198.738 2.14467 199.249 1.58133 199.708 1.174C200.176 0.766666 200.519 0.489332 200.735 0.341998L202.828 2.552C202.568 2.75133 202.187 3.11533 201.684 3.644C201.19 4.17267 200.679 4.90067 200.15 5.828C199.63 6.74667 199.188 7.89933 198.824 9.286C198.46 10.664 198.278 12.3063 198.278 14.213C198.278 16.111 198.46 17.749 198.824 19.127C199.188 20.4963 199.63 21.6403 200.15 22.559C200.679 23.4863 201.19 24.2143 201.684 24.743C202.187 25.2717 202.568 25.6443 202.828 25.861L200.735 28.071ZM213.999 5.165C214.623 5.165 215.126 5.34267 215.507 5.698C215.888 6.05333 216.079 6.55167 216.079 7.193C216.079 7.817 215.867 8.337 215.442 8.753C215.026 9.16033 214.428 9.364 213.648 9.364C212.868 9.364 212.266 9.104 211.841 8.584C211.425 8.064 211.217 7.39233 211.217 6.569C211.217 5.789 211.408 5.10433 211.789 4.515C212.179 3.917 212.664 3.41433 213.245 3.007C213.826 2.59967 214.402 2.27467 214.974 2.032L215.442 3.007C215.069 3.15433 214.688 3.36233 214.298 3.631C213.917 3.89967 213.596 4.19867 213.336 4.528C213.076 4.85733 212.942 5.18233 212.933 5.503C212.968 5.451 213.08 5.38167 213.271 5.295C213.462 5.20833 213.704 5.165 213.999 5.165ZM224.155 22.312C222.586 22.312 221.329 22.039 220.385 21.493C219.449 20.9383 218.768 20.167 218.344 19.179C217.928 18.191 217.72 17.0513 217.72 15.76C217.72 15.604 217.72 15.4523 217.72 15.305C217.72 15.1577 217.72 15.0103 217.72 14.863H221.724C221.724 14.9323 221.724 15.0147 221.724 15.11C221.724 15.2053 221.724 15.3007 221.724 15.396C221.724 16.0287 221.789 16.6267 221.919 17.19C222.057 17.7533 222.304 18.2083 222.66 18.555C223.015 18.9017 223.513 19.075 224.155 19.075C224.813 19.075 225.312 18.8973 225.65 18.542C225.988 18.1867 226.217 17.71 226.339 17.112C226.46 16.514 226.521 15.851 226.521 15.123V2.825H230.551V15.695C230.551 16.5963 230.447 17.4457 230.239 18.243C230.039 19.0403 229.697 19.7467 229.212 20.362C228.735 20.9687 228.085 21.4453 227.262 21.792C226.438 22.1387 225.403 22.312 224.155 22.312ZM240.626 22.299C239.135 22.299 237.822 21.9913 236.687 21.376C235.551 20.7607 234.663 19.9157 234.022 18.841C233.389 17.7577 233.073 16.5097 233.073 15.097C233.073 13.693 233.389 12.4537 234.022 11.379C234.663 10.2957 235.551 9.455 236.687 8.857C237.822 8.25033 239.135 7.947 240.626 7.947C242.116 7.947 243.429 8.25033 244.565 8.857C245.7 9.455 246.584 10.2957 247.217 11.379C247.858 12.4537 248.179 13.693 248.179 15.097C248.179 16.5097 247.858 17.7577 247.217 18.841C246.584 19.9157 245.7 20.7607 244.565 21.376C243.429 21.9913 242.116 22.299 240.626 22.299ZM240.626 19.101C241.328 19.101 241.939 18.9363 242.459 18.607C242.979 18.2777 243.382 17.814 243.668 17.216C243.954 16.6093 244.097 15.903 244.097 15.097C244.097 14.291 243.954 13.5933 243.668 13.004C243.382 12.406 242.979 11.9467 242.459 11.626C241.939 11.3053 241.328 11.145 240.626 11.145C239.932 11.145 239.321 11.3053 238.793 11.626C238.273 11.9467 237.87 12.406 237.584 13.004C237.298 13.5933 237.155 14.291 237.155 15.097C237.155 15.903 237.298 16.6093 237.584 17.216C237.87 17.814 238.273 18.2777 238.793 18.607C239.321 18.9363 239.932 19.101 240.626 19.101ZM260.42 22V17.086C260.42 16.9127 260.42 16.6743 260.42 16.371C260.42 16.0677 260.42 15.76 260.42 15.448C260.42 15.136 260.42 14.8847 260.42 14.694C260.42 13.6367 260.229 12.822 259.848 12.25C259.467 11.6693 258.769 11.379 257.755 11.379C257.096 11.379 256.542 11.5133 256.091 11.782C255.64 12.042 255.298 12.4103 255.064 12.887C254.839 13.3637 254.726 13.9227 254.726 14.564L253.556 13.758C253.556 12.6053 253.803 11.5957 254.297 10.729C254.791 9.85367 255.471 9.169 256.338 8.675C257.213 8.181 258.223 7.934 259.367 7.934C261.057 7.934 262.327 8.43233 263.176 9.429C264.025 10.417 264.45 11.795 264.45 13.563C264.45 14.0137 264.45 14.5553 264.45 15.188C264.45 15.8207 264.45 16.553 264.45 17.385V22H260.42ZM250.696 22V1.681H254.726V22H250.696ZM277.178 22V16.137C277.178 15.8077 277.178 15.5087 277.178 15.24C277.178 14.9713 277.178 14.7287 277.178 14.512C277.178 13.94 277.104 13.42 276.957 12.952C276.81 12.4753 276.545 12.094 276.164 11.808C275.783 11.522 275.232 11.379 274.513 11.379C273.889 11.379 273.347 11.522 272.888 11.808C272.437 12.094 272.091 12.4927 271.848 13.004C271.605 13.5153 271.484 14.1047 271.484 14.772L270.366 13.966C270.366 12.77 270.626 11.7213 271.146 10.82C271.666 9.91867 272.368 9.21233 273.252 8.701C274.145 8.18967 275.133 7.934 276.216 7.934C277.351 7.934 278.283 8.16367 279.011 8.623C279.748 9.07367 280.294 9.70633 280.649 10.521C281.013 11.327 281.195 12.2717 281.195 13.355C281.195 13.797 281.195 14.291 281.195 14.837C281.195 15.383 281.195 15.942 281.195 16.514V22H277.178ZM267.454 22V8.194H271.484V22H267.454ZM283.042 26.108V23.443H299.578V26.108H283.042ZM309.678 22.312C308.482 22.312 307.364 22.0953 306.324 21.662C305.284 21.2287 304.37 20.5917 303.581 19.751C302.793 18.9103 302.173 17.8747 301.722 16.644C301.272 15.4047 301.046 13.9877 301.046 12.393C301.046 10.7897 301.267 9.377 301.709 8.155C302.16 6.92433 302.78 5.893 303.568 5.061C304.357 4.229 305.271 3.60067 306.311 3.176C307.351 2.75133 308.474 2.539 309.678 2.539C310.874 2.539 311.992 2.75133 313.032 3.176C314.081 3.60067 315 4.229 315.788 5.061C316.577 5.893 317.192 6.92433 317.634 8.155C318.076 9.377 318.297 10.7897 318.297 12.393C318.297 13.9877 318.072 15.4047 317.621 16.644C317.179 17.8747 316.56 18.9103 315.762 19.751C314.974 20.5917 314.055 21.2287 313.006 21.662C311.966 22.0953 310.857 22.312 309.678 22.312ZM309.678 19.075C310.484 19.075 311.23 18.854 311.914 18.412C312.608 17.97 313.162 17.2593 313.578 16.28C313.994 15.292 314.202 13.9963 314.202 12.393C314.202 10.781 313.99 9.48967 313.565 8.519C313.149 7.54833 312.599 6.85067 311.914 6.426C311.23 5.99267 310.484 5.776 309.678 5.776C308.872 5.776 308.123 5.99267 307.429 6.426C306.745 6.85067 306.194 7.54833 305.778 8.519C305.362 9.48967 305.154 10.781 305.154 12.393C305.154 14.005 305.362 15.3007 305.778 16.28C306.194 17.2593 306.745 17.97 307.429 18.412C308.123 18.854 308.872 19.075 309.678 19.075ZM326.555 22.312C324.986 22.312 323.73 22.039 322.785 21.493C321.849 20.9383 321.169 20.167 320.744 19.179C320.328 18.191 320.12 17.0513 320.12 15.76C320.12 15.604 320.12 15.4523 320.12 15.305C320.12 15.1577 320.12 15.0103 320.12 14.863H324.124C324.124 14.9323 324.124 15.0147 324.124 15.11C324.124 15.2053 324.124 15.3007 324.124 15.396C324.124 16.0287 324.189 16.6267 324.319 17.19C324.458 17.7533 324.705 18.2083 325.06 18.555C325.415 18.9017 325.914 19.075 326.555 19.075C327.214 19.075 327.712 18.8973 328.05 18.542C328.388 18.1867 328.618 17.71 328.739 17.112C328.86 16.514 328.921 15.851 328.921 15.123V2.825H332.951V15.695C332.951 16.5963 332.847 17.4457 332.639 18.243C332.44 19.0403 332.097 19.7467 331.612 20.362C331.135 20.9687 330.485 21.4453 329.662 21.792C328.839 22.1387 327.803 22.312 326.555 22.312ZM343.026 22.299C341.535 22.299 340.222 21.9913 339.087 21.376C337.952 20.7607 337.063 19.9157 336.422 18.841C335.789 17.7577 335.473 16.5097 335.473 15.097C335.473 13.693 335.789 12.4537 336.422 11.379C337.063 10.2957 337.952 9.455 339.087 8.857C340.222 8.25033 341.535 7.947 343.026 7.947C344.517 7.947 345.83 8.25033 346.965 8.857C348.1 9.455 348.984 10.2957 349.617 11.379C350.258 12.4537 350.579 13.693 350.579 15.097C350.579 16.5097 350.258 17.7577 349.617 18.841C348.984 19.9157 348.1 20.7607 346.965 21.376C345.83 21.9913 344.517 22.299 343.026 22.299ZM343.026 19.101C343.728 19.101 344.339 18.9363 344.859 18.607C345.379 18.2777 345.782 17.814 346.068 17.216C346.354 16.6093 346.497 15.903 346.497 15.097C346.497 14.291 346.354 13.5933 346.068 13.004C345.782 12.406 345.379 11.9467 344.859 11.626C344.339 11.3053 343.728 11.145 343.026 11.145C342.333 11.145 341.722 11.3053 341.193 11.626C340.673 11.9467 340.27 12.406 339.984 13.004C339.698 13.5933 339.555 14.291 339.555 15.097C339.555 15.903 339.698 16.6093 339.984 17.216C340.27 17.814 340.673 18.2777 341.193 18.607C341.722 18.9363 342.333 19.101 343.026 19.101ZM353.688 6.413C353.073 6.413 352.57 6.23533 352.18 5.88C351.799 5.516 351.608 5.01767 351.608 4.385C351.608 3.75233 351.82 3.23233 352.245 2.825C352.67 2.41767 353.268 2.214 354.039 2.214C354.828 2.214 355.43 2.474 355.846 2.994C356.271 3.514 356.483 4.18567 356.483 5.009C356.483 5.789 356.288 6.478 355.898 7.076C355.517 7.66533 355.036 8.16367 354.455 8.571C353.874 8.97833 353.298 9.30333 352.726 9.546L352.258 8.571C352.639 8.415 353.021 8.207 353.402 7.947C353.783 7.67833 354.104 7.37933 354.364 7.05C354.624 6.72067 354.758 6.39567 354.767 6.075C354.732 6.11833 354.62 6.18767 354.429 6.283C354.238 6.36967 353.991 6.413 353.688 6.413Z" fill="#DDA803"/>
</svg>
